<?xml version="1.0" encoding="UTF-8" standalone="no" ?>
<!DOCTYPE svg PUBLIC "-//W3C//DTD SVG 1.1//EN" "http://www.w3.org/Graphics/SVG/1.1/DTD/svg11.dtd">
<svg xmlns="http://www.w3.org/2000/svg" xmlns:xlink="http://www.w3.org/1999/xlink" version="1.1" width="1080" height="1080" viewBox="0 0 1080 1080" xml:space="preserve">
<desc>Created with Fabric.js 5.2.4</desc>
<defs>
</defs>
<g transform="matrix(1 0 0 1 540 540)" id="1855fe73-f790-4390-9c66-a783494a6f21"  >
<rect style="stroke: none; stroke-width: 1; stroke-dasharray: none; stroke-linecap: butt; stroke-dashoffset: 0; stroke-linejoin: miter; stroke-miterlimit: 4; fill: rgb(255,255,255); fill-rule: nonzero; opacity: 1; visibility: hidden;" vector-effect="non-scaling-stroke"  x="-540" y="-540" rx="0" ry="0" width="1080" height="1080" />
</g>
<g transform="matrix(1 0 0 1 540 540)" id="42ce1b18-c26f-4a4c-8db3-c0927d117dd4"  >
</g>
<g transform="matrix(1 0 0 1 540 540)"  >
<g style="" vector-effect="non-scaling-stroke"   >
		<g transform="matrix(1.38 0 0 1.38 -388.63 -44.83)"  >
<ellipse style="stroke: none; stroke-width: 1; stroke-dasharray: none; stroke-linecap: butt; stroke-dashoffset: 0; stroke-linejoin: miter; stroke-miterlimit: 4; fill: rgb(5,1,74); fill-rule: nonzero; opacity: 1;" vector-effect="non-scaling-stroke"  cx="0" cy="0" rx="9" ry="13.5" />
</g>
		<g transform="matrix(1.38 0 0 1.38 -388.63 44.83)"  >
<ellipse style="stroke: none; stroke-width: 1; stroke-dasharray: none; stroke-linecap: butt; stroke-dashoffset: 0; stroke-linejoin: miter; stroke-miterlimit: 4; fill: rgb(5,1,74); fill-rule: nonzero; opacity: 1;" vector-effect="non-scaling-stroke"  cx="0" cy="0" rx="9" ry="13.5" />
</g>
		<g transform="matrix(1.38 0 0 1.38 10.04 -40.02)"  >
<ellipse style="stroke: none; stroke-width: 1; stroke-dasharray: none; stroke-linecap: butt; stroke-dashoffset: 0; stroke-linejoin: miter; stroke-miterlimit: 4; fill: rgb(5,1,74); fill-rule: nonzero; opacity: 1;" vector-effect="non-scaling-stroke"  cx="0" cy="0" rx="21" ry="22" />
</g>
		<g transform="matrix(1.38 0 0 1.38 10.49 -39.32)"  >
<path style="stroke: rgb(255,255,255); stroke-width: 2; stroke-dasharray: none; stroke-linecap: butt; stroke-dashoffset: 0; stroke-linejoin: miter; stroke-miterlimit: 4; fill: rgb(5,1,74); fill-rule: nonzero; opacity: 1;" vector-effect="non-scaling-stroke"  transform=" translate(-339.5, -176.99)" d="M 348 176.988 C 348 182.008 344.147 185.988 339.5 185.988 C 334.853 185.988 331 182.008 331 176.988 C 331 171.969 334.853 167.988 339.5 167.988 C 344.147 167.988 348 171.969 348 176.988 Z" stroke-linecap="round" />
</g>
		<g transform="matrix(1.38 0 0 1.38 213.52 -37.96)"  >
<path style="stroke: rgb(189,28,28); stroke-width: 16; stroke-dasharray: none; stroke-linecap: round; stroke-dashoffset: 0; stroke-linejoin: miter; stroke-miterlimit: 4; fill: none; fill-rule: nonzero; opacity: 1;" vector-effect="non-scaling-stroke"  transform=" translate(-487.5, -179.48)" d="M 416 180.091 L 467.672 180.091 L 477.188 190.619 C 477.235 190.671 477.32 190.66 477.352 190.598 L 492.817 160.178 C 492.854 160.105 492.959 160.105 492.996 160.179 L 512.026 198.779 C 512.065 198.86 512.183 198.852 512.211 198.766 L 521.685 169.649 C 521.71 169.57 521.816 169.555 521.863 169.624 L 531.361 183.636 L 559 183.636" stroke-linecap="round" />
</g>
		<g transform="matrix(1.38 0 0 1.38 -218.14 106.89)"  >
<path style="stroke: rgb(5,1,74); stroke-width: 16; stroke-dasharray: none; stroke-linecap: round; stroke-dashoffset: 0; stroke-linejoin: miter; stroke-miterlimit: 4; fill: none; fill-rule: nonzero; opacity: 1;" vector-effect="non-scaling-stroke"  transform=" translate(-174.59, -284.48)" d="M 298.5 228 C 271 261.833 198.009 328.4 136.809 340 C 105.142 345.5 45.8 329 51 251" stroke-linecap="round" />
</g>
		<g transform="matrix(1.38 0 0 1.38 -25.68 0)"  >
<path style="stroke: rgb(5,1,74); stroke-width: 16; stroke-dasharray: none; stroke-linecap: round; stroke-dashoffset: 0; stroke-linejoin: miter; stroke-miterlimit: 4; fill: none; fill-rule: nonzero; opacity: 1;" vector-effect="non-scaling-stroke"  transform=" translate(-314.06, -208.11)" d="M 50.4969 162 C 45.4969 73.343 108.139 67.843 139.806 73.343 C 201.006 84.943 271.306 155.51 298.806 189.343 C 325.4 223.997 380.927 287.29 429.506 318.33 C 453.257 333.505 481.032 343.734 509.21 344.363 C 544.206 345.145 580.298 326.858 577.497 256 L 577.497 152.5 C 580.997 117 563.996 53.1002 467.997 81.5002 C 448.498 88.6669 393.3 114.8 352.5 162" stroke-linecap="round" />
</g>
		<g transform="matrix(1.38 0 0 1.38 379.06 -31.73)"  >
<path style="stroke: rgb(189,28,28); stroke-width: 16; stroke-dasharray: none; stroke-linecap: round; stroke-dashoffset: 0; stroke-linejoin: miter; stroke-miterlimit: 4; fill: none; fill-rule: nonzero; opacity: 1;" vector-effect="non-scaling-stroke"  transform=" translate(-607.5, -184)" d="M 597 184 L 618 184" stroke-linecap="round" />
</g>
</g>
</g>
</svg>