<svg width="659" height="414" viewBox="0 0 659 414" fill="none" xmlns="http://www.w3.org/2000/svg">
<rect width="659" height="414" fill="white"/>
<ellipse cx="51" cy="174.5" rx="9" ry="13.5" fill="#05014A"/>
<ellipse cx="51" cy="239.5" rx="9" ry="13.5" fill="#05014A"/>
<ellipse cx="340" cy="177.988" rx="21" ry="22" fill="#05014A"/>
<path d="M348 176.988C348 182.008 344.147 185.988 339.5 185.988C334.853 185.988 331 182.008 331 176.988C331 171.969 334.853 167.988 339.5 167.988C344.147 167.988 348 171.969 348 176.988Z" fill="#05014A" stroke="white" stroke-width="2"/>
<path d="M416 180.091H467.672L477.188 190.619C477.235 190.671 477.32 190.66 477.352 190.598L492.817 160.178C492.854 160.105 492.959 160.105 492.996 160.179L512.026 198.779C512.065 198.86 512.183 198.852 512.211 198.766L521.685 169.649C521.71 169.57 521.816 169.555 521.863 169.624L531.361 183.636H559" stroke="#BD1C1C" stroke-width="16" stroke-linecap="round"/>
<path d="M298.5 228C271 261.833 198.009 328.4 136.809 340C105.142 345.5 45.8 329 51 251" stroke="#05014A" stroke-width="16" stroke-linecap="round"/>
<path d="M50.4969 162C45.4969 73.343 108.139 67.843 139.806 73.343C201.006 84.943 271.306 155.51 298.806 189.343C325.4 223.997 380.927 287.29 429.506 318.33C453.257 333.505 481.032 343.734 509.21 344.363C544.206 345.145 580.298 326.858 577.497 256V152.5C580.997 117 563.996 53.1002 467.997 81.5002C448.498 88.6669 393.3 114.8 352.5 162" stroke="#05014A" stroke-width="16" stroke-linecap="round"/>
<path d="M597 184H618" stroke="#BD1C1C" stroke-width="16" stroke-linecap="round"/>
</svg>
